<?xml version="1.0" standalone="no"?>
<!DOCTYPE svg PUBLIC "-//W3C//DTD SVG 20010904//EN"
 "http://www.w3.org/TR/2001/REC-SVG-20010904/DTD/svg10.dtd">
<svg version="1.0" xmlns="http://www.w3.org/2000/svg"
 width="1024.000000pt" height="1024.000000pt" viewBox="0 0 1024.000000 1024.000000"
 preserveAspectRatio="xMidYMid meet">

<g transform="translate(0.000000,1024.000000) scale(0.100000,-0.100000)"
fill="#000000" stroke="none">
<path d="M4840 10234 c-428 -31 -758 -86 -1120 -189 -1589 -449 -2870 -1651
-3426 -3213 -399 -1121 -390 -2368 23 -3487 355 -958 993 -1793 1830 -2392
1677 -1199 3920 -1271 5671 -184 685 426 1277 1026 1691 1716 1011 1684 970
3801 -106 5440 -581 885 -1428 1574 -2403 1958 -451 177 -888 283 -1375 333
-142 14 -666 26 -785 18z m585 -325 c840 -55 1619 -314 2325 -774 260 -169
485 -352 728 -590 252 -247 447 -481 636 -765 1029 -1546 1076 -3539 120
-5131 -203 -338 -421 -616 -714 -910 -394 -396 -776 -672 -1270 -918 -1453
-723 -3178 -659 -4576 169 -354 210 -641 435 -950 744 -386 387 -656 761 -898
1247 -540 1079 -650 2295 -317 3474 122 431 334 893 589 1285 312 480 739 927
1215 1273 889 647 2008 969 3112 896z"/>
<path d="M4960 6160 l0 -880 -880 0 -880 0 0 -160 0 -160 880 0 880 0 0 -880
0 -880 160 0 160 0 0 880 0 880 880 0 880 0 0 160 0 160 -880 0 -880 0 0 880
0 880 -160 0 -160 0 0 -880z"/>
</g>
</svg>
